<?xml version="1.0" encoding="UTF-8"?>
<svg id="Layer_2" data-name="Layer 2" xmlns="http://www.w3.org/2000/svg" version="1.1" viewBox="0 0 889 1027.7">
  <defs>
    <style>
      .cls-1 {
        fill: #5d8a54;
        stroke-width: 0px;
      }
    </style>
  </defs>
  <path class="cls-1" d="M822.9,785.6c-6.7-15.7-13.5-24.2-19.2-28.3-4.5-3.2-11.4-.8-11.8,4.8-1.2,18.8-208.8,69.2-224.3,72.9-.5,0-1-.2-1-.7-18.5-177.6,134.7-623.2,145-660.1.4-1.6,1.2-3,2.4-4.2,24.1-26.1,15.2-32.9,11-34.5-.9-.3-1.9-.4-2.8-.3-26.5,2.8-61.2-14.3-69.8-25.6-3.8-5-1,6.9-.6,9.4.6,3.7.6,5.8.6,8.4,0,0,2.8,85.1-24.5,201.4l-118.5,415.6c-.3,1.9-.3,2.5-.2,3.7.3,2.4-5.6,2.1-62.5-41.7-.3-.2-.4-.6-.3-.9l44-275.1c0-.3.2-.6.5-.7l77.9-39.8c.5-.3,1-.4,1.6-.5l22-2.1c24.4-2.4,15.1-71.4,15.1-71.4-1.7-18.7-7.2-32.9-11.6-41.7-1.8-3.7-7.2-2.9-8.1,1.1-13.8,62.8-72.2,98.3-92.6,105.1-3.5,1.2-5.5-.8-4.6-4.3l77.1-284.6c.7-2.6,1.9-5,3.6-7.1l9.6-12.3c10-12.5,1.1-15.6-3.8-16.3-1.5-.2-2.9.7-3.4,2.1-7.1,18.5-69,42.9-69,42.9-14.1,9.1,6.7,21.8,10.5,24,.3.2.5.6.4,1l-63.3,269.7c-.7,2.9-2.2,5.5-4.5,7.5-36.9,31.8-123.5,66.9-126.9,68.3,0,0-.1,0-.2.1-5.1,5.4-6.8,12.3-6.8,18.9,0,11,4.5,21.4,5.4,23.3,0,.2.2.4.3.6,11.9,19.1,20.4,16.4,23.5,14.4l1.8-2,10.1-20.1c1.9-3.8,4.8-7.1,8.3-9.4,13.5-9.1,49.8-32.7,81.6-43.4.6-.2,1.2.3,1.1.9-2.7,18.6-31.8,220.5-31.8,219.4s-29.2-22.6-58.5-44.4c-27.8-20.8-55.7-41.5-58.3-43.5-.1,0-.3-.2-.5-.3-33.8-19.4-52.3-21.8-57.6-22.1-.7,0-1-.8-.6-1.4,96.5-133.5,138.4-306.6,138.4-306.6,31.6-116,62.8-225.5,29-239.8-28.8-12.2-82.1,46.8-128.1,137.4l-98.9,201c-.4.8-1.5.6-1.7-.1l-31.3-116.4c-.7-2.5.3-5.1,2.4-6.6,30.5-22.9-17.9-52.4-19-40.7-.8,9.1-27.1,13.9-40.2,15.7-5.8.8-11.6,2-17.2,3.8-29.5,9.3-25,14.3-21.2,16.1,3.4,1.6,6.6,3.6,9.6,5.7,86.2,62.1,98.8,207.1,99.8,220.5l-.2,1.9-45.3,147.1c-2.2,7.2-4,14.5-5.4,21.9-8.4,45.6-32.8,203.5,34.4,185.5,75.5-20.2,80.5-166.2,80.8-177.1,0-.4.3-.7.6-.8,53.1-17.2,178.4,94,185.4,100.4.2.2.3.4.3.7l-13.8,231.4c-.3,5.3,2.6,10.3,7.4,12.6,1.6.8,3.3,1.6,4.8,2.4,11.7,6,22.4,13.9,31.1,23.7,5.2,5.9,9.6,9.1,13.2,10.7,7.6,3.2,15.2-4.8,11.9-12.3-35.1-81.1-22.1-234.5-20.5-251.7,0-.7.9-1,1.5-.6l53.6,40.7c.2.2.4.5.3.8-.3,5.8-3.3,64.6-4.4,83.5-1,18.6,24.2,31.4,27.3,32.9.2,0,.4,0,.6,0,141.1-67.2,211.7-71.6,232.6-70.5,15.6.8,39.7,39.4,51.1,59.2,2.5,4.4,9,3.6,10.4-1.3,6.9-23.6,18.8-74.5,4.8-107.6h0v-.2ZM138.9,753.3c-9-13.9-33.2-71.7,39.2-227.6,1.8-3.9,7.6-3.3,8.5.9,9.5,42.4,33.4,180.2-41.4,228.1-2.1,1.4-4.9.8-6.3-1.4h0ZM218.3,523l-18-137.5c0-.7,0-1.4.2-2,40.5-121,145.6-290.7,148.6-295.6,0,0,0,0,.1-.2,69.5-98.1,43,0,43,0-67.6,254.7-143,397.5-165.5,436.9-2.1,3.8-7.9,2.6-8.4-1.7h0Z"/>
</svg>